<?xml version="1.0" encoding="iso-8859-1"?>
<!-- Uploaded to: SVG Repo, www.svgrepo.com, Generator: SVG Repo Mixer Tools -->
<svg height="800px" width="800px" version="1.1" id="Layer_1" xmlns="http://www.w3.org/2000/svg" xmlns:xlink="http://www.w3.org/1999/xlink" 
	 viewBox="0 0 512 512" xml:space="preserve">
<path style="fill:#5A6B96;" d="M500.989,348.464v13.29c0,20.623-16.714,37.337-37.326,37.337H48.337
	c-20.612,0-37.326-16.714-37.326-37.337v-13.29H500.989z"/>
<path style="fill:#EFEFEF;" d="M500.989,51.152v297.312H11.011V51.152c0-20.623,16.714-37.337,37.326-37.337h415.326
	C484.275,13.815,500.989,30.529,500.989,51.152z"/>
<path style="fill:#264087;" d="M333.075,498.184c-51.384,0-102.767,0-154.151,0c12.022-32.827,17.426-66.269,17.734-99.097
	c39.561,0,79.121,0,118.683,0C315.65,431.916,321.054,465.357,333.075,498.184z"/>
<path style="fill:#45CCFF;" d="M382.624,206.789v-49.548h-33.514c-2.221-8.337-5.531-16.233-9.773-23.526l23.719-23.719
	L328.019,74.96L304.3,98.679c-7.291-4.242-15.188-7.553-23.526-9.773V55.391h-49.548v33.515c-8.337,2.22-16.233,5.531-23.526,9.773
	L183.981,74.96l-35.036,35.036l23.719,23.719c-4.242,7.291-7.553,15.188-9.773,23.526h-33.515v49.548h33.515
	c2.221,8.337,5.531,16.233,9.773,23.526l-23.719,23.719l35.036,35.036l23.719-23.719c7.291,4.242,15.188,7.553,23.526,9.773v33.514
	h49.548v-33.515c8.337-2.22,16.233-5.531,23.526-9.773l23.719,23.719l35.036-35.036l-23.719-23.719
	c4.242-7.291,7.553-15.188,9.773-23.526H382.624z M256,234.315c-28.885,0-52.301-23.415-52.301-52.301s23.417-52.301,52.301-52.301
	c28.886,0,52.301,23.415,52.301,52.301S284.885,234.315,256,234.315z"/>
<g>
	<path style="fill:#231F20;" d="M463.663,2.804H48.337C21.683,2.804,0,24.493,0,51.152v310.602
		c0,26.659,21.683,48.348,48.337,48.348h136.991c-1.233,26.664-6.005,52.51-14.227,77.072h-33.467
		c-6.08,0-11.011,4.93-11.011,11.011c0,6.081,4.931,11.011,11.011,11.011h236.731c6.08,0,11.011-4.93,11.011-11.011
		c0-6.081-4.931-11.011-11.011-11.011h-33.468c-8.222-24.562-12.993-50.408-14.227-77.072h136.992
		c26.654,0,48.337-21.689,48.337-48.348V51.152C512,24.493,490.317,2.804,463.663,2.804z M22.022,51.152
		c0-14.517,11.806-26.327,26.316-26.327h415.326c14.511,0,26.316,11.81,26.316,26.327v286.302H22.022V51.152z M317.757,487.174
		H194.243c7.592-24.704,11.996-50.528,13.14-77.072h97.233C305.761,436.646,310.165,462.471,317.757,487.174z M489.979,361.754
		c0,14.517-11.806,26.327-26.316,26.327H48.337c-14.511,0-26.316-11.81-26.316-26.327v-2.279h467.957V361.754z"/>
	<path style="fill:#231F20;" d="M382.624,146.23h-25.408c-1.263-3.564-2.715-7.06-4.35-10.472l17.975-17.975
		c4.3-4.3,4.3-11.272,0-15.571l-35.035-35.036c-4.3-4.3-11.269-4.3-15.573,0L302.257,85.15c-3.413-1.635-6.907-3.086-10.472-4.35
		V55.391c0-6.081-4.931-11.011-11.011-11.011h-49.548c-6.08,0-11.011,4.93-11.011,11.011V80.8c-3.563,1.263-7.06,2.715-10.473,4.35
		l-17.974-17.975c-4.3-4.3-11.27-4.3-15.573,0l-35.036,35.036c-2.065,2.065-3.225,4.866-3.225,7.786s1.161,5.721,3.225,7.786
		l17.975,17.975c-1.634,3.412-3.087,6.908-4.35,10.472h-25.407c-6.08,0-11.011,4.93-11.011,11.011v49.548
		c0,6.081,4.931,11.011,11.011,11.011h25.407c1.263,3.564,2.716,7.06,4.35,10.472l-17.975,17.975
		c-2.065,2.065-3.225,4.866-3.225,7.786c0,2.92,1.161,5.721,3.225,7.786l35.036,35.036c2.066,2.065,4.866,3.225,7.786,3.225
		s5.721-1.161,7.786-3.225l17.974-17.975c3.413,1.635,6.909,3.087,10.473,4.35v25.408c0,6.081,4.931,11.011,11.011,11.011h49.548
		c6.08,0,11.011-4.93,11.011-11.011V283.23c3.563-1.263,7.06-2.715,10.472-4.35l17.975,17.975c2.066,2.065,4.866,3.225,7.786,3.225
		c2.92,0,5.72-1.161,7.786-3.225l35.035-35.036c4.3-4.3,4.3-11.272,0-15.571l-17.975-17.975c1.635-3.412,3.087-6.908,4.35-10.472
		h25.411c6.08,0,11.011-4.93,11.011-11.011v-49.548C393.634,151.159,388.704,146.23,382.624,146.23z M371.613,195.778h-22.504
		c-4.989,0-9.356,3.355-10.64,8.178c-1.94,7.284-4.85,14.29-8.65,20.822c-2.513,4.32-1.802,9.789,1.731,13.323l15.934,15.934
		L328.019,273.5l-15.934-15.934c-3.534-3.534-9.005-4.244-13.324-1.731c-6.532,3.801-13.537,6.711-20.82,8.65
		c-4.822,1.284-8.178,5.651-8.178,10.64v22.504h-27.527v-22.504c0-4.99-3.356-9.356-8.178-10.64
		c-7.284-1.939-14.29-4.85-20.822-8.651c-4.316-2.513-9.789-1.802-13.323,1.732L183.981,273.5l-19.465-19.465l15.934-15.934
		c3.533-3.533,4.244-9.003,1.731-13.324c-3.801-6.53-6.712-13.536-8.651-20.821c-1.284-4.822-5.651-8.178-10.64-8.178h-22.503
		v-27.527h22.504c4.989,0,9.356-3.355,10.64-8.178c1.94-7.285,4.85-14.291,8.651-20.821c2.513-4.32,1.802-9.79-1.731-13.324
		l-15.934-15.934l19.465-19.464l15.933,15.933c3.533,3.533,9.006,4.244,13.323,1.732c6.534-3.801,13.539-6.711,20.822-8.651
		c4.822-1.284,8.178-5.651,8.178-10.64V66.402h27.527v22.504c0,4.989,3.355,9.356,8.177,10.64c7.286,1.94,14.291,4.851,20.821,8.651
		c4.32,2.512,9.79,1.804,13.324-1.731l15.934-15.933l19.465,19.464l-15.934,15.934c-3.533,3.533-4.244,9.003-1.731,13.323
		c3.8,6.533,6.711,13.538,8.65,20.822c1.284,4.822,5.651,8.178,10.64,8.178h22.503V195.778z"/>
	<path style="fill:#231F20;" d="M255.999,118.703c-34.911,0-63.312,28.401-63.312,63.312s28.401,63.312,63.312,63.312
		s63.312-28.401,63.312-63.312S290.91,118.703,255.999,118.703z M255.999,223.305c-22.768,0-41.29-18.523-41.29-41.29
		s18.522-41.29,41.29-41.29s41.29,18.523,41.29,41.29S278.767,223.305,255.999,223.305z"/>
	<path style="fill:#231F20;" d="M456.58,189.546c-6.08,0-11.011,4.93-11.011,11.011v101.666c0,6.081,4.931,11.011,11.011,11.011
		s11.011-4.93,11.011-11.011V200.557C467.59,194.476,462.66,189.546,456.58,189.546z"/>
	<path style="fill:#231F20;" d="M456.58,146.391c-6.08,0-11.011,4.93-11.011,11.011v1.101c0,6.081,4.931,11.011,11.011,11.011
		s11.011-4.93,11.011-11.011v-1.101C467.59,151.321,462.66,146.391,456.58,146.391z"/>
</g>
</svg>